<?xml version="1.0" encoding="utf-8"?>
<!-- Generator: Adobe Illustrator 18.0.0, SVG Export Plug-In . SVG Version: 6.00 Build 0)  -->
<!DOCTYPE svg PUBLIC "-//W3C//DTD SVG 1.1//EN" "http://www.w3.org/Graphics/SVG/1.1/DTD/svg11.dtd">
<svg version="1.1" id="Layer_1" xmlns="http://www.w3.org/2000/svg" xmlns:xlink="http://www.w3.org/1999/xlink" x="0px" y="0px"
	 viewBox="0 0 50 50" enable-background="new 0 0 50 50" xml:space="preserve">
<path d="M38,33.4l8.4-8.4L38,16.6V12h-4.6L25,3.6L16.6,12H12v4.6L3.6,25l8.4,8.4V38h4.6l8.4,8.4l8.4-8.4H38V33.4z M45,25l-7,7v-3.6
	l3.4-3.4L38,21.6V18L45,25z M22.1,37L13,27.9v-5.9l9.1-9.1h5.9l9.1,9.1v5.9L27.9,37H22.1z M26.9,38L25,39.9L23.1,38H26.9z M20.6,37
	H17l-4-4v-3.6L20.6,37z M12,26.9L10.1,25l1.9-1.9V26.9z M13,20.6V17l4-4h3.6L13,20.6z M23.1,12l1.9-1.9l1.9,1.9H23.1z M29.4,13H33
	l4,4v3.6L29.4,13z M38,23.1l1.9,1.9L38,26.9V23.1z M37,29.4V33l-4,4h-3.6L37,29.4z M37,13v2.6L34.4,13H37z M25,5l7,7h-3.6L25,8.7
	L21.6,12H18L25,5z M13,13h2.6L13,15.6V13z M5,25l7-7v3.6L8.7,25l3.4,3.4V32L5,25z M13,37v-2.6l2.6,2.6H13z M25,45l-7-7h3.6l3.4,3.4
	l3.4-3.4H32L25,45z M34.4,37l2.6-2.6V37H34.4z M19.2,23.3v-0.4l1.9-0.2v0.7h0c0.4-0.5,1-0.7,1.6-0.7c0.7,0,1.3,0.2,1.8,0.7
	c0.5,0.5,0.7,1.1,0.7,1.9c0,0.5-0.1,0.9-0.3,1.3s-0.5,0.7-0.9,0.9c-0.4,0.2-0.8,0.3-1.3,0.3c-0.6,0-1.1-0.2-1.4-0.6h0v1.3
	c0,0.2,0,0.3,0,0.4c0,0.1,0,0.2,0.1,0.3c0,0.1,0.1,0.2,0.1,0.2c0,0,0.1,0.1,0.2,0.1c0.1,0,0.2,0.1,0.3,0.1c0.1,0,0.3,0,0.4,0v0.4
	h-3.3v-0.4c0.2,0,0.4,0,0.5-0.1c0.1-0.1,0.2-0.2,0.2-0.3c0-0.2,0.1-0.4,0.1-0.7v-3.6c0-0.7,0-1.2-0.1-1.4c0-0.1-0.1-0.2-0.2-0.3
	S19.5,23.3,19.2,23.3z M21.4,25.6c0,0.5,0.1,0.8,0.3,1.2c0.2,0.3,0.6,0.5,1,0.5c0.4,0,0.7-0.2,0.9-0.5s0.3-0.8,0.3-1.5
	c0-1.4-0.4-2.1-1.1-2.1c-0.2,0-0.4,0-0.6,0.1s-0.3,0.2-0.4,0.4c-0.2,0.3-0.3,0.7-0.3,1.3V25.6z M25.9,23.3v-0.5h1v-0.5
	c0-0.7,0.2-1.3,0.7-1.7c0.4-0.4,1-0.6,1.7-0.6c0.4,0,0.8,0.1,1.1,0.2c0.3,0.2,0.4,0.3,0.4,0.6c0,0.1-0.1,0.3-0.2,0.4
	c-0.1,0.1-0.2,0.1-0.4,0.1c-0.1,0-0.2,0-0.3-0.1c-0.1-0.1-0.2-0.2-0.4-0.4c-0.1-0.2-0.3-0.2-0.5-0.2c-0.3,0-0.5,0.2-0.6,0.5
	c-0.1,0.3-0.2,0.7-0.2,1.3v0.6h1.6v0.5h-1.6v2.9c0,0.5,0.1,0.8,0.2,0.9c0.1,0.2,0.4,0.2,0.8,0.2v0.4H26v-0.4c0.1,0,0.2,0,0.3,0
	c0.1,0,0.2,0,0.2-0.1s0.1-0.1,0.2-0.1c0,0,0.1-0.1,0.1-0.2s0-0.2,0-0.3c0-0.1,0-0.2,0-0.4v-3H25.9z"/>
</svg>
