<?xml version="1.0" encoding="utf-8"?>
<!-- Generator: Adobe Illustrator 18.0.0, SVG Export Plug-In . SVG Version: 6.00 Build 0)  -->
<!DOCTYPE svg PUBLIC "-//W3C//DTD SVG 1.1//EN" "http://www.w3.org/Graphics/SVG/1.1/DTD/svg11.dtd">
<svg version="1.1" id="Layer_1" xmlns="http://www.w3.org/2000/svg" xmlns:xlink="http://www.w3.org/1999/xlink" x="0px" y="0px"
	 viewBox="0 0 30 30" enable-background="new 0 0 30 30" xml:space="preserve">
<path fill="#FFFFFF" d="M8.9,1.3C5.5,2.8,2.8,5.5,1.3,8.9L8.9,1.3z"/>
<path fill="#FFFFFF" d="M15,0c-0.4,0-0.8,0-1.2,0.1L0.1,13.8C0,14.2,0,14.6,0,15c0,0.1,0,0.2,0,0.3L15.3,0C15.2,0,15.1,0,15,0z"/>
<path fill="#FFFFFF" d="M0.8,19.7L19.7,0.8c-0.4-0.1-0.7-0.2-1.1-0.3L0.4,18.6C0.5,19,0.6,19.3,0.8,19.7z"/>
<path fill="#FFFFFF" d="M2.4,23.2L23.2,2.4c-0.3-0.2-0.6-0.4-0.9-0.5L1.9,22.3C2.1,22.6,2.2,22.9,2.4,23.2z"/>
<path fill="#FFFFFF" d="M25.2,4.1L4.1,25.2c0.2,0.2,0.5,0.5,0.7,0.7L25.9,4.8C25.7,4.5,25.5,4.3,25.2,4.1z"/>
<path fill="#FFFFFF" d="M7.7,28.1L28.1,7.7c-0.2-0.3-0.3-0.6-0.5-0.9L6.8,27.6C7.1,27.8,7.4,27.9,7.7,28.1z"/>
<path fill="#FFFFFF" d="M11.4,29.5l18.1-18.1c-0.1-0.4-0.2-0.7-0.3-1.1L10.3,29.2C10.7,29.4,11,29.5,11.4,29.5z"/>
<path fill="#FFFFFF" d="M30,15c0-0.1,0-0.2,0-0.3L14.7,30c0.1,0,0.2,0,0.3,0c0.4,0,0.8,0,1.1-0.1l13.8-13.8C30,15.8,30,15.4,30,15z"
	/>
<path fill="#FFFFFF" d="M25.5,25.7l0.1-0.1c1.3-1.3,2.3-2.8,3-4.4l-7.6,7.6C22.8,28,24.3,26.9,25.5,25.7z"/>
</svg>
