<?xml version="1.0" encoding="utf-8"?>
<!-- Generator: Adobe Illustrator 18.0.0, SVG Export Plug-In . SVG Version: 6.00 Build 0)  -->
<!DOCTYPE svg PUBLIC "-//W3C//DTD SVG 1.1//EN" "http://www.w3.org/Graphics/SVG/1.1/DTD/svg11.dtd">
<svg version="1.1" id="Layer_1" xmlns="http://www.w3.org/2000/svg" xmlns:xlink="http://www.w3.org/1999/xlink" x="0px" y="0px"
	 viewBox="0 0 50 50" enable-background="new 0 0 50 50" xml:space="preserve">
<g>
	<path d="M19.2,23.3v-0.4l1.9-0.2v0.7h0c0.4-0.5,1-0.7,1.6-0.7c0.7,0,1.3,0.2,1.8,0.7c0.5,0.5,0.7,1.1,0.7,1.9
		c0,0.5-0.1,0.9-0.3,1.3s-0.5,0.7-0.9,0.9c-0.4,0.2-0.8,0.3-1.3,0.3c-0.6,0-1.1-0.2-1.4-0.6h0v1.3c0,0.2,0,0.3,0,0.4
		c0,0.1,0,0.2,0.1,0.3c0,0.1,0.1,0.2,0.1,0.2c0,0,0.1,0.1,0.2,0.1c0.1,0,0.2,0.1,0.3,0.1c0.1,0,0.3,0,0.4,0v0.4h-3.3v-0.4
		c0.2,0,0.4,0,0.5-0.1c0.1-0.1,0.2-0.2,0.2-0.3c0-0.2,0.1-0.4,0.1-0.7v-3.6c0-0.7,0-1.2-0.1-1.4c0-0.1-0.1-0.2-0.2-0.3
		S19.5,23.3,19.2,23.3z M21.4,25.6c0,0.5,0.1,0.8,0.3,1.2c0.2,0.3,0.6,0.5,1,0.5c0.4,0,0.7-0.2,0.9-0.5s0.3-0.8,0.3-1.5
		c0-1.4-0.4-2.1-1.1-2.1c-0.2,0-0.4,0-0.6,0.1s-0.3,0.2-0.4,0.4c-0.2,0.3-0.3,0.7-0.3,1.3V25.6z"/>
	<path d="M25.9,23.3v-0.5h1v-0.5c0-0.7,0.2-1.3,0.7-1.7c0.4-0.4,1-0.6,1.7-0.6c0.4,0,0.8,0.1,1.1,0.2c0.3,0.2,0.4,0.3,0.4,0.6
		c0,0.1-0.1,0.3-0.2,0.4c-0.1,0.1-0.2,0.1-0.4,0.1c-0.1,0-0.2,0-0.3-0.1c-0.1-0.1-0.2-0.2-0.4-0.4c-0.1-0.2-0.3-0.2-0.5-0.2
		c-0.3,0-0.5,0.2-0.6,0.5c-0.1,0.3-0.2,0.7-0.2,1.3v0.6h1.6v0.5h-1.6v2.9c0,0.5,0.1,0.8,0.2,0.9c0.1,0.2,0.4,0.2,0.8,0.2v0.4H26
		v-0.4c0.1,0,0.2,0,0.3,0c0.1,0,0.2,0,0.2-0.1s0.1-0.1,0.2-0.1c0,0,0.1-0.1,0.1-0.2s0-0.2,0-0.3c0-0.1,0-0.2,0-0.4v-3H25.9z"/>
</g>
</svg>
